<svg xmlns="http://www.w3.org/2000/svg" viewBox="0 0 512 512">
  <defs>
    <linearGradient id="gradient" x1="0%" x2="100%" y1="0%" y2="100%">
      <stop offset="0%" stop-color="#7F5AF0" />
      <stop offset="100%" stop-color="#FF8E9E" />
    </linearGradient>
  </defs>
  <rect width="512" height="512" rx="120" fill="url(#gradient)" />
  <g fill="#fff">
    <path d="M132 180c0-30 24-54 54-54h140c30 0 54 24 54 54v20c0 30-24 54-54 54H186c-30 0-54-24-54-54v-20z" opacity="0.9" />
    <path d="M112 286c0-28 22-50 50-50h188c28 0 50 22 50 50v46c0 28-22 50-50 50H162c-28 0-50-22-50-50v-46z" opacity="0.85" />
    <circle cx="256" cy="175" r="32" opacity="0.95" />
    <circle cx="196" cy="316" r="28" opacity="0.95" />
    <circle cx="316" cy="316" r="28" opacity="0.95" />
  </g>
</svg>
